<svg xmlns="http://www.w3.org/2000/svg" xmlns:xlink="http://www.w3.org/1999/xlink" width="1080" zoomAndPan="magnify" viewBox="0 0 810 809.999993" height="1080" preserveAspectRatio="xMidYMid meet" version="1.0"><defs><g/></defs><g fill="#2c3587" fill-opacity="1"><g transform="translate(189.290559, 401.414033)"><g><path d="M 22.75 -52.515625 C 25.539062 -52.515625 28.269531 -52.109375 30.9375 -51.296875 C 33.613281 -50.484375 35.597656 -49.679688 36.890625 -48.890625 L 38.765625 -47.640625 L 34.015625 -38.265625 C 33.640625 -38.515625 33.117188 -38.835938 32.453125 -39.234375 C 31.785156 -39.628906 30.53125 -40.160156 28.6875 -40.828125 C 26.851562 -41.492188 25.144531 -41.828125 23.5625 -41.828125 C 21.601562 -41.828125 20.09375 -41.410156 19.03125 -40.578125 C 17.96875 -39.742188 17.4375 -38.617188 17.4375 -37.203125 C 17.4375 -36.492188 17.6875 -35.835938 18.1875 -35.234375 C 18.6875 -34.628906 19.539062 -33.984375 20.75 -33.296875 C 21.957031 -32.609375 23.019531 -32.050781 23.9375 -31.625 C 24.851562 -31.207031 26.269531 -30.582031 28.1875 -29.75 C 31.53125 -28.332031 34.378906 -26.40625 36.734375 -23.96875 C 39.085938 -21.53125 40.265625 -18.769531 40.265625 -15.6875 C 40.265625 -12.726562 39.734375 -10.144531 38.671875 -7.9375 C 37.609375 -5.726562 36.148438 -4 34.296875 -2.75 C 32.441406 -1.5 30.382812 -0.570312 28.125 0.03125 C 25.875 0.632812 23.4375 0.9375 20.8125 0.9375 C 18.5625 0.9375 16.351562 0.707031 14.1875 0.25 C 12.019531 -0.207031 10.207031 -0.78125 8.75 -1.46875 C 7.289062 -2.15625 5.976562 -2.832031 4.8125 -3.5 C 3.644531 -4.164062 2.789062 -4.726562 2.25 -5.1875 L 1.4375 -5.875 L 7.3125 -15.75 C 7.8125 -15.332031 8.5 -14.800781 9.375 -14.15625 C 10.25 -13.507812 11.800781 -12.644531 14.03125 -11.5625 C 16.257812 -10.476562 18.226562 -9.9375 19.9375 -9.9375 C 24.894531 -9.9375 27.375 -11.625 27.375 -15 C 27.375 -15.707031 27.195312 -16.363281 26.84375 -16.96875 C 26.488281 -17.570312 25.863281 -18.175781 24.96875 -18.78125 C 24.070312 -19.382812 23.28125 -19.863281 22.59375 -20.21875 C 21.90625 -20.570312 20.78125 -21.113281 19.21875 -21.84375 C 17.65625 -22.570312 16.5 -23.125 15.75 -23.5 C 12.625 -25.039062 10.207031 -26.96875 8.5 -29.28125 C 6.789062 -31.601562 5.9375 -34.097656 5.9375 -36.765625 C 5.9375 -41.390625 7.644531 -45.171875 11.0625 -48.109375 C 14.476562 -51.046875 18.375 -52.515625 22.75 -52.515625 Z M 22.75 -52.515625 "/></g></g></g><g fill="#2c3587" fill-opacity="1"><g transform="translate(237.931043, 401.414033)"><g><path d="M 3.75 -51.578125 L 22.5625 -51.578125 C 27.8125 -51.578125 32.0625 -50.222656 35.3125 -47.515625 C 38.570312 -44.804688 40.203125 -40.863281 40.203125 -35.6875 C 40.203125 -30.519531 38.550781 -26.46875 35.25 -23.53125 C 31.957031 -20.59375 27.726562 -19.125 22.5625 -19.125 L 15.5 -19.125 L 15.5 0 L 3.75 0 Z M 15.5 -28.5 L 18.8125 -28.5 C 21.4375 -28.5 23.59375 -29.03125 25.28125 -30.09375 C 26.96875 -31.164062 27.8125 -32.910156 27.8125 -35.328125 C 27.8125 -37.785156 26.96875 -39.546875 25.28125 -40.609375 C 23.59375 -41.671875 21.4375 -42.203125 18.8125 -42.203125 L 15.5 -42.203125 Z M 15.5 -28.5 "/></g></g></g><g fill="#2c3587" fill-opacity="1"><g transform="translate(286.1964, 401.414033)"><g><path d="M 29.9375 -51.578125 L 50.765625 0 L 38.140625 0 L 34.328125 -10.3125 L 14.6875 -10.3125 L 10.875 0 L -1.75 0 L 19.0625 -51.578125 Z M 30.3125 -20.625 L 24.5625 -35.640625 L 24.4375 -35.640625 L 18.6875 -20.625 Z M 30.3125 -20.625 "/></g></g></g><g fill="#2c3587" fill-opacity="1"><g transform="translate(341.839082, 401.414033)"><g><path d="M 50.390625 -28.875 L 50.390625 -17.6875 C 49.054688 -11.5625 46.140625 -6.925781 41.640625 -3.78125 C 37.140625 -0.632812 32.113281 0.9375 26.5625 0.9375 C 19.601562 0.9375 13.675781 -1.664062 8.78125 -6.875 C 3.882812 -12.082031 1.4375 -18.375 1.4375 -25.75 C 1.4375 -33.257812 3.832031 -39.597656 8.625 -44.765625 C 13.414062 -49.929688 19.394531 -52.515625 26.5625 -52.515625 C 34.945312 -52.515625 41.578125 -49.578125 46.453125 -43.703125 L 38.765625 -35.265625 C 36.015625 -39.679688 32.175781 -41.890625 27.25 -41.890625 C 23.625 -41.890625 20.53125 -40.316406 17.96875 -37.171875 C 15.40625 -34.023438 14.125 -30.21875 14.125 -25.75 C 14.125 -21.375 15.40625 -17.632812 17.96875 -14.53125 C 20.53125 -11.425781 23.625 -9.875 27.25 -9.875 C 30.257812 -9.875 32.878906 -10.78125 35.109375 -12.59375 C 37.335938 -14.40625 38.453125 -16.8125 38.453125 -19.8125 L 26.5625 -19.8125 L 26.5625 -28.875 Z M 50.390625 -28.875 "/></g></g></g><g fill="#000000" fill-opacity="1"><g transform="translate(400.298361, 401.414033)"><g/></g></g><g fill="#00bf63" fill-opacity="1"><g transform="translate(423.993672, 401.414033)"><g><path d="M 0.5 -41.265625 L 0.5 -51.578125 L 36.765625 -51.578125 L 36.765625 -41.265625 L 24.5 -41.265625 L 24.5 0 L 12.75 0 L 12.75 -41.265625 Z M 0.5 -41.265625 "/></g></g></g><g fill="#00bf63" fill-opacity="1"><g transform="translate(467.882661, 401.414033)"><g><path d="M 33.265625 -51.578125 L 33.265625 -41.265625 L 15.5 -41.265625 L 15.5 -31 L 32.515625 -31 L 32.515625 -20.6875 L 15.5 -20.6875 L 15.5 -10.3125 L 33.265625 -10.3125 L 33.265625 0 L 3.75 0 L 3.75 -51.578125 Z M 33.265625 -51.578125 "/></g></g></g><g fill="#00bf63" fill-opacity="1"><g transform="translate(510.771332, 401.414033)"><g><path d="M 31.203125 -10.625 C 32.992188 -10.625 34.734375 -10.894531 36.421875 -11.4375 C 38.109375 -11.976562 39.347656 -12.5 40.140625 -13 L 41.328125 -13.8125 L 46.328125 -3.8125 C 46.160156 -3.6875 45.929688 -3.519531 45.640625 -3.3125 C 45.347656 -3.101562 44.671875 -2.71875 43.609375 -2.15625 C 42.546875 -1.59375 41.410156 -1.101562 40.203125 -0.6875 C 38.992188 -0.269531 37.410156 0.101562 35.453125 0.4375 C 33.492188 0.769531 31.46875 0.9375 29.375 0.9375 C 24.582031 0.9375 20.039062 -0.238281 15.75 -2.59375 C 11.457031 -4.945312 8 -8.1875 5.375 -12.3125 C 2.75 -16.4375 1.4375 -20.894531 1.4375 -25.6875 C 1.4375 -29.320312 2.207031 -32.804688 3.75 -36.140625 C 5.289062 -39.472656 7.34375 -42.328125 9.90625 -44.703125 C 12.46875 -47.078125 15.457031 -48.972656 18.875 -50.390625 C 22.289062 -51.804688 25.789062 -52.515625 29.375 -52.515625 C 32.71875 -52.515625 35.796875 -52.117188 38.609375 -51.328125 C 41.421875 -50.535156 43.410156 -49.742188 44.578125 -48.953125 L 46.328125 -47.765625 L 41.328125 -37.765625 C 41.035156 -38.015625 40.597656 -38.316406 40.015625 -38.671875 C 39.429688 -39.023438 38.265625 -39.492188 36.515625 -40.078125 C 34.765625 -40.660156 32.992188 -40.953125 31.203125 -40.953125 C 28.359375 -40.953125 25.8125 -40.492188 23.5625 -39.578125 C 21.3125 -38.660156 19.53125 -37.453125 18.21875 -35.953125 C 16.90625 -34.453125 15.90625 -32.832031 15.21875 -31.09375 C 14.53125 -29.363281 14.1875 -27.601562 14.1875 -25.8125 C 14.1875 -21.894531 15.65625 -18.382812 18.59375 -15.28125 C 21.53125 -12.175781 25.734375 -10.625 31.203125 -10.625 Z M 31.203125 -10.625 "/></g></g></g><g fill="#00bf63" fill-opacity="1"><g transform="translate(564.475889, 401.414033)"><g><path d="M 15.5 -20.6875 L 15.5 0 L 3.75 0 L 3.75 -51.578125 L 15.5 -51.578125 L 15.5 -31 L 32.140625 -31 L 32.140625 -51.578125 L 43.890625 -51.578125 L 43.890625 0 L 32.140625 0 L 32.140625 -20.6875 Z M 15.5 -20.6875 "/></g></g></g><g fill="#0f1b07" fill-opacity="1"><g transform="translate(330.637839, 430.362862)"><g><path d="M 7.246094 -4.457031 L 7.246094 -6.675781 L 3.425781 -6.675781 L 3.425781 -8.878906 L 7.410156 -8.878906 L 7.410156 -11.097656 L 0.980469 -11.097656 L 0.980469 0 L 3.425781 0 L 3.425781 -4.457031 Z M 7.246094 -4.457031 "/></g></g></g><g fill="#0f1b07" fill-opacity="1"><g transform="translate(342.56518, 430.362862)"><g><path d="M 7.457031 -11.097656 L 7.457031 -4.683594 C 7.457031 -3.148438 7 -2.285156 5.320312 -2.285156 C 3.65625 -2.285156 3.183594 -3.148438 3.183594 -4.683594 L 3.183594 -11.097656 L 0.734375 -11.097656 L 0.734375 -4.324219 C 0.734375 -1.371094 2.433594 0.164062 5.320312 0.164062 C 8.207031 0.164062 9.90625 -1.371094 9.90625 -4.324219 L 9.90625 -11.097656 Z M 7.457031 -11.097656 "/></g></g></g><g fill="#0f1b07" fill-opacity="1"><g transform="translate(356.906766, 430.362862)"><g><path d="M 5.695312 -8.878906 L 8.863281 -8.878906 L 8.863281 -11.097656 L 0.0820312 -11.097656 L 0.0820312 -8.878906 L 3.246094 -8.878906 L 3.246094 0 L 5.695312 0 Z M 5.695312 -8.878906 "/></g></g></g><g fill="#0f1b07" fill-opacity="1"><g transform="translate(369.551857, 430.362862)"><g><path d="M 7.457031 -11.097656 L 7.457031 -4.683594 C 7.457031 -3.148438 7 -2.285156 5.320312 -2.285156 C 3.65625 -2.285156 3.183594 -3.148438 3.183594 -4.683594 L 3.183594 -11.097656 L 0.734375 -11.097656 L 0.734375 -4.324219 C 0.734375 -1.371094 2.433594 0.164062 5.320312 0.164062 C 8.207031 0.164062 9.90625 -1.371094 9.90625 -4.324219 L 9.90625 -11.097656 Z M 7.457031 -11.097656 "/></g></g></g><g fill="#0f1b07" fill-opacity="1"><g transform="translate(383.893444, 430.362862)"><g><path d="M 3.425781 -3.964844 L 3.445312 -3.964844 L 6.085938 0 L 9.1875 0 L 6.003906 -4.078125 C 7.410156 -4.421875 8.535156 -5.664062 8.535156 -7.539062 C 8.535156 -9.644531 6.9375 -11.097656 5.140625 -11.097656 L 0.980469 -11.097656 L 0.980469 0 L 3.425781 0 Z M 4.734375 -9.171875 C 5.449219 -9.171875 6.203125 -8.550781 6.203125 -7.539062 C 6.203125 -6.480469 5.449219 -5.890625 4.734375 -5.890625 L 3.425781 -5.890625 L 3.425781 -9.171875 Z M 4.734375 -9.171875 "/></g></g></g><g fill="#0f1b07" fill-opacity="1"><g transform="translate(396.58747, 430.362862)"><g><path d="M 7.410156 -2.21875 L 3.425781 -2.21875 L 3.425781 -4.457031 L 7.246094 -4.457031 L 7.246094 -6.675781 L 3.425781 -6.675781 L 3.425781 -8.878906 L 7.410156 -8.878906 L 7.410156 -11.097656 L 0.980469 -11.097656 L 0.980469 0 L 7.410156 0 Z M 7.410156 -2.21875 "/></g></g></g><g fill="#0f1b07" fill-opacity="1"><g transform="translate(408.677935, 430.362862)"><g/></g></g><g fill="#0f1b07" fill-opacity="1"><g transform="translate(416.461908, 430.362862)"><g><path d="M 9.546875 -5.566406 C 9.546875 -3.851562 7.996094 -2.285156 6.28125 -2.285156 C 4.570312 -2.285156 3.019531 -3.851562 3.019531 -5.566406 C 3.019531 -7.277344 4.570312 -8.828125 6.28125 -8.828125 C 7.996094 -8.828125 9.546875 -7.277344 9.546875 -5.566406 Z M 11.996094 -5.546875 C 11.996094 -8.617188 9.351562 -11.261719 6.28125 -11.261719 C 3.214844 -11.261719 0.570312 -8.617188 0.570312 -5.546875 C 0.570312 -2.480469 3.214844 0.164062 6.28125 0.164062 C 9.351562 0.164062 11.996094 -2.480469 11.996094 -5.546875 Z M 11.996094 -5.546875 "/></g></g></g><g fill="#0f1b07" fill-opacity="1"><g transform="translate(432.728368, 430.362862)"><g><path d="M 7.246094 -4.457031 L 7.246094 -6.675781 L 3.425781 -6.675781 L 3.425781 -8.878906 L 7.410156 -8.878906 L 7.410156 -11.097656 L 0.980469 -11.097656 L 0.980469 0 L 3.425781 0 L 3.425781 -4.457031 Z M 7.246094 -4.457031 "/></g></g></g><g fill="#0f1b07" fill-opacity="1"><g transform="translate(444.655709, 430.362862)"><g/></g></g><g fill="#0f1b07" fill-opacity="1"><g transform="translate(452.439682, 430.362862)"><g><path d="M 6.332031 -3.246094 C 6.332031 -2.511719 5.710938 -1.910156 4.976562 -1.910156 L 3.425781 -1.910156 L 3.425781 -4.585938 L 4.976562 -4.585938 C 5.710938 -4.585938 6.332031 -3.964844 6.332031 -3.246094 Z M 5.566406 -7.882812 C 5.566406 -7.179688 4.976562 -6.59375 4.277344 -6.59375 L 3.425781 -6.59375 L 3.425781 -9.171875 L 4.277344 -9.171875 C 4.976562 -9.171875 5.566406 -8.601562 5.566406 -7.882812 Z M 8.828125 -3.183594 C 8.828125 -4.683594 7.816406 -5.679688 6.578125 -5.972656 C 7.410156 -6.347656 7.898438 -7.195312 7.898438 -8.324219 C 7.898438 -9.839844 6.691406 -11.097656 4.796875 -11.097656 L 0.980469 -11.097656 L 0.980469 0 L 5.46875 0 C 7.589844 0 8.828125 -1.273438 8.828125 -3.183594 Z M 8.828125 -3.183594 "/></g></g></g><g fill="#0f1b07" fill-opacity="1"><g transform="translate(465.133708, 430.362862)"><g><path d="M 3.425781 0 L 3.425781 -11.097656 L 0.980469 -11.097656 L 0.980469 0 Z M 3.425781 0 "/></g></g></g><g fill="#0f1b07" fill-opacity="1"><g transform="translate(473.24393, 430.362862)"><g><path d="M 0.980469 0 L 7.410156 0 L 7.410156 -2.21875 L 3.425781 -2.21875 L 3.425781 -11.097656 L 0.980469 -11.097656 Z M 0.980469 0 "/></g></g></g><g fill="#0f1b07" fill-opacity="1"><g transform="translate(484.926584, 430.362862)"><g><path d="M 0.980469 0 L 7.410156 0 L 7.410156 -2.21875 L 3.425781 -2.21875 L 3.425781 -11.097656 L 0.980469 -11.097656 Z M 0.980469 0 "/></g></g></g><g fill="#0f1b07" fill-opacity="1"><g transform="translate(496.609239, 430.362862)"><g><path d="M 3.425781 0 L 3.425781 -11.097656 L 0.980469 -11.097656 L 0.980469 0 Z M 3.425781 0 "/></g></g></g><g fill="#0f1b07" fill-opacity="1"><g transform="translate(504.719461, 430.362862)"><g><path d="M 9.546875 -5.566406 C 9.546875 -3.851562 7.996094 -2.285156 6.28125 -2.285156 C 4.570312 -2.285156 3.019531 -3.851562 3.019531 -5.566406 C 3.019531 -7.277344 4.570312 -8.828125 6.28125 -8.828125 C 7.996094 -8.828125 9.546875 -7.277344 9.546875 -5.566406 Z M 11.996094 -5.546875 C 11.996094 -8.617188 9.351562 -11.261719 6.28125 -11.261719 C 3.214844 -11.261719 0.570312 -8.617188 0.570312 -5.546875 C 0.570312 -2.480469 3.214844 0.164062 6.28125 0.164062 C 9.351562 0.164062 11.996094 -2.480469 11.996094 -5.546875 Z M 11.996094 -5.546875 "/></g></g></g><g fill="#0f1b07" fill-opacity="1"><g transform="translate(520.98592, 430.362862)"><g><path d="M 9.695312 0 L 9.695312 -11.097656 L 7.246094 -11.097656 L 7.246094 -4.179688 L 3.425781 -11.097656 L 0.980469 -11.097656 L 0.980469 0 L 3.425781 0 L 3.425781 -6.917969 L 7.246094 0 Z M 9.695312 0 "/></g></g></g><g fill="#0f1b07" fill-opacity="1"><g transform="translate(535.360134, 430.362862)"><g><path d="M 5.289062 -1.730469 C 4.078125 -1.730469 3.035156 -2.332031 2.96875 -3.65625 L 0.488281 -3.65625 C 0.507812 -0.945312 2.742188 0.261719 5.191406 0.261719 C 7.457031 0.261719 9.792969 -0.703125 9.792969 -3.3125 C 9.792969 -7.539062 3.378906 -6.121094 3.378906 -8.09375 C 3.378906 -8.925781 4.339844 -9.253906 5.027344 -9.253906 C 6.25 -9.253906 6.917969 -8.878906 7.050781 -7.71875 L 9.417969 -7.71875 C 9.335938 -10.25 7.277344 -11.261719 4.992188 -11.261719 C 2.96875 -11.261719 0.847656 -10.183594 0.847656 -7.898438 C 0.847656 -3.800781 7.261719 -5.191406 7.261719 -3.035156 C 7.261719 -2.039062 6.054688 -1.730469 5.289062 -1.730469 Z M 5.289062 -1.730469 "/></g></g></g><path fill="#2c3587" d="M 187.3125 447.175781 C 136.683594 405.03125 116.445312 345.882812 142.101562 315.058594 C 151.300781 304.011719 165.144531 298.101562 181.457031 297.007812 C 156.472656 293.304688 134.609375 298.71875 121.78125 314.125 C 96.125 344.949219 116.367188 404.097656 166.992188 446.242188 C 199.46875 473.277344 236.566406 486.746094 265.761719 484.789062 C 240.757812 481.082031 212.632812 468.253906 187.3125 447.175781 " fill-opacity="1" fill-rule="nonzero"/><path fill="#00bf63" d="M 311.378906 400.226562 C 313.421875 413.726562 311.097656 426.082031 303.746094 435.570312 C 283.230469 462.046875 231.347656 456.195312 187.863281 422.5 C 166.113281 405.640625 150.582031 385.015625 143.058594 365.292969 C 146.722656 389.457031 164.386719 417.285156 192.285156 438.898438 C 235.769531 472.59375 287.652344 478.449219 308.167969 451.972656 C 318.421875 438.742188 318.898438 419.9375 311.378906 400.226562 " fill-opacity="1" fill-rule="nonzero"/></svg>