<svg xmlns="http://www.w3.org/2000/svg" xmlns:xlink="http://www.w3.org/1999/xlink" width="500" zoomAndPan="magnify" viewBox="0 0 375 374.999991" height="500" preserveAspectRatio="xMidYMid meet" version="1.0"><defs><g/><clipPath id="b387d7ee69"><path d="M 63.246094 149.007812 L 99.609375 149.007812 L 99.609375 200.757812 L 63.246094 200.757812 Z M 63.246094 149.007812 " clip-rule="nonzero"/></clipPath><clipPath id="29510402e9"><path d="M 16.246094 112.5 L 146.746094 112.5 L 146.746094 262.5 L 16.246094 262.5 Z M 16.246094 112.5 " clip-rule="nonzero"/></clipPath><clipPath id="de6b6fc6f0"><path d="M 120 196 L 142 196 L 142 216 L 120 216 Z M 120 196 " clip-rule="nonzero"/></clipPath><clipPath id="c8f10375ce"><path d="M 135.464844 192.320312 L 148.515625 207.804688 L 129.019531 224.238281 L 115.96875 208.753906 Z M 135.464844 192.320312 " clip-rule="nonzero"/></clipPath><clipPath id="914dd9350f"><path d="M 135.464844 192.320312 L 148.515625 207.804688 L 129.019531 224.238281 L 115.96875 208.753906 Z M 135.464844 192.320312 " clip-rule="nonzero"/></clipPath><clipPath id="0f18249ce9"><path d="M 123 200 L 145 200 L 145 220 L 123 220 Z M 123 200 " clip-rule="nonzero"/></clipPath><clipPath id="890c28a85d"><path d="M 135.464844 192.320312 L 148.515625 207.804688 L 129.019531 224.238281 L 115.96875 208.753906 Z M 135.464844 192.320312 " clip-rule="nonzero"/></clipPath><clipPath id="4b7d1ff570"><path d="M 135.464844 192.320312 L 148.515625 207.804688 L 129.019531 224.238281 L 115.96875 208.753906 Z M 135.464844 192.320312 " clip-rule="nonzero"/></clipPath><clipPath id="1203c61a9f"><path d="M 122.261719 257 L 304 257 L 304 299.96875 L 122.261719 299.96875 Z M 122.261719 257 " clip-rule="nonzero"/></clipPath><clipPath id="78937053dc"><path d="M 217 41.96875 L 258 41.96875 L 258 134 L 217 134 Z M 217 41.96875 " clip-rule="nonzero"/></clipPath></defs><rect x="-37.5" width="450" fill="#ffffff" y="-37.499999" height="449.999989" fill-opacity="1"/><rect x="-37.5" width="450" fill="#ffffff" y="-37.499999" height="449.999989" fill-opacity="1"/><g clip-path="url(#b387d7ee69)"><path fill="#8b792d" d="M 86.15625 201.042969 C 88.671875 198.59375 92.082031 193.699219 90.230469 188.972656 C 89.089844 186.054688 85.691406 185.605469 81.90625 183.054688 C 80.28125 181.960938 81.382812 179.761719 85.054688 178.910156 C 87.863281 178.261719 90.664062 177.566406 93.378906 176.589844 C 97.363281 175.160156 99.609375 172.746094 99.609375 169.703125 C 99.609375 166.746094 97.742188 164.609375 94.125 163.65625 C 91.578125 162.984375 89.765625 162.984375 83.046875 162.183594 C 79.332031 161.738281 74.539062 160.71875 72.796875 157.40625 C 70.644531 153.304688 74.851562 149.464844 77.851562 150.085938 C 75.238281 148.601562 69.105469 148.261719 65.664062 151.605469 C 63.511719 153.699219 62.761719 156.773438 63.554688 159.671875 C 64.421875 162.832031 67.886719 165.785156 71.003906 166.789062 C 82.285156 170.421875 92.679688 165.691406 93.015625 170.128906 C 93.265625 173.453125 87.816406 173.226562 79.414062 175.023438 C 75.652344 175.832031 71.640625 178.027344 72.949219 181.746094 C 75.25 188.277344 93.441406 185.800781 86.15625 201.042969 " fill-opacity="1" fill-rule="nonzero"/></g><g fill="#4b2c34" fill-opacity="1"><g transform="translate(53.153582, 236.304288)"><g><path d="M 56.703125 -38.78125 C 59.015625 -38.78125 60.609375 -38.429688 61.484375 -37.734375 C 62.359375 -37.035156 62.796875 -35.8125 62.796875 -34.0625 C 62.796875 -32.207031 62.21875 -30.90625 61.0625 -30.15625 C 59.90625 -29.414062 58.242188 -29.046875 56.078125 -29.046875 L 49.515625 -29.046875 L 49.515625 -22.328125 C 60.640625 -22.328125 66.203125 -18.59375 66.203125 -11.125 C 66.203125 -8.550781 65.53125 -6.347656 64.1875 -4.515625 C 62.851562 -2.691406 61.242188 -1.40625 59.359375 -0.65625 C 57.484375 0.09375 55.410156 0.46875 53.140625 0.46875 C 51.390625 0.46875 50.015625 0.144531 49.015625 -0.5 C 48.015625 -1.144531 47.515625 -2.007812 47.515625 -3.09375 C 47.515625 -3.5 47.5625 -3.832031 47.65625 -4.09375 C 47.757812 -4.351562 47.925781 -4.570312 48.15625 -4.75 C 48.394531 -4.925781 48.585938 -5.039062 48.734375 -5.09375 C 48.890625 -5.144531 49.148438 -5.207031 49.515625 -5.28125 C 49.878906 -5.363281 50.113281 -5.429688 50.21875 -5.484375 C 52.632812 -6.148438 53.84375 -7.617188 53.84375 -9.890625 C 53.84375 -11.171875 53.457031 -12.1875 52.6875 -12.9375 C 51.914062 -13.6875 50.859375 -14.0625 49.515625 -14.0625 C 48.273438 -9.113281 45.914062 -5.441406 42.4375 -3.046875 C 38.96875 -0.648438 33.988281 0.546875 27.5 0.546875 C 20.289062 0.546875 14.753906 -0.789062 10.890625 -3.46875 C 7.023438 -6.15625 5.09375 -9.554688 5.09375 -13.671875 C 5.09375 -17.585938 6.894531 -20.472656 10.5 -22.328125 L 10.5 -33.375 C 10.5 -36.976562 12.507812 -38.78125 16.53125 -38.78125 Z M 32.90625 -29.046875 L 27.1875 -29.046875 L 27.1875 -22.328125 L 32.90625 -22.328125 Z M 32.828125 -14.0625 L 21.625 -14.0625 C 21.625 -12.664062 22.125 -11.503906 23.125 -10.578125 C 24.132812 -9.648438 25.410156 -9.1875 26.953125 -9.1875 C 27.878906 -9.1875 28.742188 -9.34375 29.546875 -9.65625 C 30.347656 -9.96875 31.054688 -10.492188 31.671875 -11.234375 C 32.285156 -11.984375 32.671875 -12.925781 32.828125 -14.0625 Z M 32.828125 -14.0625 "/></g></g></g><g clip-path="url(#29510402e9)"><path fill="#8b792d" d="M 123.828125 262.484375 L 38.601562 262.484375 C 37.871094 262.484375 37.144531 262.445312 36.417969 262.375 C 35.691406 262.300781 34.972656 262.195312 34.257812 262.050781 C 33.539062 261.910156 32.835938 261.730469 32.136719 261.519531 C 31.4375 261.308594 30.753906 261.0625 30.078125 260.78125 C 29.40625 260.503906 28.746094 260.191406 28.105469 259.847656 C 27.460938 259.503906 26.835938 259.128906 26.230469 258.722656 C 25.625 258.316406 25.039062 257.882812 24.476562 257.421875 C 23.910156 256.957031 23.371094 256.46875 22.855469 255.953125 C 22.339844 255.4375 21.851562 254.898438 21.390625 254.332031 C 20.925781 253.769531 20.492188 253.183594 20.085938 252.578125 C 19.679688 251.972656 19.308594 251.347656 18.960938 250.703125 C 18.617188 250.0625 18.308594 249.402344 18.027344 248.730469 C 17.746094 248.054688 17.503906 247.371094 17.289062 246.671875 C 17.078125 245.972656 16.898438 245.269531 16.757812 244.554688 C 16.613281 243.835938 16.507812 243.117188 16.433594 242.390625 C 16.363281 241.664062 16.324219 240.9375 16.324219 240.210938 L 16.324219 180.464844 C 16.320312 179.058594 16.453125 177.664062 16.722656 176.28125 C 16.988281 174.898438 17.386719 173.558594 17.914062 172.253906 C 18.441406 170.949219 19.089844 169.707031 19.855469 168.527344 C 20.625 167.347656 21.5 166.253906 22.480469 165.242188 L 68.074219 118.09375 C 68.496094 117.652344 68.941406 117.234375 69.410156 116.839844 C 69.875 116.441406 70.359375 116.070312 70.863281 115.722656 C 71.367188 115.375 71.886719 115.054688 72.421875 114.757812 C 72.960938 114.464844 73.507812 114.195312 74.074219 113.957031 C 74.636719 113.71875 75.210938 113.507812 75.792969 113.324219 C 76.378906 113.140625 76.96875 112.992188 77.570312 112.867188 C 78.167969 112.746094 78.773438 112.652344 79.382812 112.59375 C 79.992188 112.53125 80.601562 112.5 81.214844 112.5 C 81.824219 112.5 82.4375 112.53125 83.042969 112.59375 C 83.652344 112.652344 84.257812 112.746094 84.855469 112.867188 C 85.457031 112.992188 86.050781 113.140625 86.632812 113.324219 C 87.21875 113.507812 87.792969 113.71875 88.355469 113.957031 C 88.917969 114.195312 89.46875 114.464844 90.003906 114.757812 C 90.539062 115.054688 91.058594 115.375 91.5625 115.722656 C 92.066406 116.070312 92.550781 116.441406 93.019531 116.839844 C 93.484375 117.234375 93.929688 117.652344 94.355469 118.09375 L 144.195312 169.636719 C 144.507812 169.957031 144.785156 170.304688 145.027344 170.679688 C 145.273438 171.050781 145.476562 171.445312 145.640625 171.863281 C 145.808594 172.277344 145.929688 172.703125 146.011719 173.140625 C 146.09375 173.582031 146.128906 174.023438 146.125 174.46875 C 146.117188 174.917969 146.066406 175.359375 145.972656 175.792969 C 145.878906 176.230469 145.746094 176.65625 145.566406 177.0625 C 145.390625 177.472656 145.175781 177.863281 144.921875 178.230469 C 144.664062 178.597656 144.378906 178.933594 144.058594 179.246094 C 143.738281 179.554688 143.386719 179.832031 143.011719 180.074219 C 142.636719 180.316406 142.242188 180.519531 141.828125 180.679688 C 141.410156 180.84375 140.984375 180.964844 140.542969 181.042969 C 140.105469 181.125 139.660156 181.160156 139.214844 181.152344 C 138.769531 181.140625 138.328125 181.089844 137.890625 180.996094 C 137.457031 180.898438 137.03125 180.761719 136.625 180.582031 C 136.214844 180.402344 135.828125 180.183594 135.460938 179.929688 C 135.097656 179.675781 134.757812 179.386719 134.449219 179.0625 L 84.601562 127.539062 C 84.386719 127.308594 84.148438 127.101562 83.886719 126.917969 C 83.628906 126.734375 83.351562 126.582031 83.058594 126.453125 C 82.769531 126.328125 82.46875 126.230469 82.15625 126.167969 C 81.84375 126.101562 81.53125 126.070312 81.214844 126.070312 C 80.894531 126.070312 80.582031 126.101562 80.269531 126.167969 C 79.960938 126.230469 79.65625 126.328125 79.367188 126.453125 C 79.074219 126.582031 78.800781 126.734375 78.539062 126.917969 C 78.28125 127.101562 78.042969 127.308594 77.824219 127.539062 L 32.226562 174.667969 C 31.476562 175.449219 30.898438 176.339844 30.496094 177.347656 C 30.09375 178.351562 29.894531 179.398438 29.902344 180.480469 L 29.902344 240.210938 C 29.902344 240.78125 29.960938 241.347656 30.070312 241.910156 C 30.183594 242.46875 30.351562 243.015625 30.570312 243.542969 C 30.789062 244.070312 31.058594 244.574219 31.375 245.050781 C 31.691406 245.523438 32.054688 245.964844 32.460938 246.371094 C 32.863281 246.773438 33.304688 247.136719 33.78125 247.453125 C 34.253906 247.769531 34.757812 248.039062 35.285156 248.257812 C 35.8125 248.476562 36.359375 248.644531 36.917969 248.757812 C 37.480469 248.867188 38.046875 248.925781 38.621094 248.925781 L 123.847656 248.925781 C 124.292969 248.925781 124.730469 248.96875 125.167969 249.054688 C 125.605469 249.144531 126.03125 249.269531 126.441406 249.441406 C 126.851562 249.613281 127.242188 249.820312 127.613281 250.066406 C 127.984375 250.316406 128.324219 250.597656 128.640625 250.910156 C 128.953125 251.226562 129.234375 251.570312 129.484375 251.9375 C 129.730469 252.308594 129.941406 252.699219 130.109375 253.109375 C 130.28125 253.523438 130.410156 253.945312 130.496094 254.382812 C 130.582031 254.820312 130.625 255.261719 130.625 255.703125 C 130.625 256.148438 130.582031 256.589844 130.496094 257.027344 C 130.410156 257.464844 130.28125 257.886719 130.109375 258.300781 C 129.9375 258.710938 129.730469 259.101562 129.484375 259.472656 C 129.234375 259.839844 128.953125 260.183594 128.640625 260.5 C 128.324219 260.8125 127.984375 261.09375 127.613281 261.34375 C 127.242188 261.589844 126.851562 261.796875 126.441406 261.96875 C 126.03125 262.140625 125.605469 262.265625 125.167969 262.355469 C 124.730469 262.441406 124.292969 262.484375 123.847656 262.484375 Z M 123.828125 262.484375 " fill-opacity="1" fill-rule="nonzero"/></g><g clip-path="url(#de6b6fc6f0)"><g clip-path="url(#c8f10375ce)"><g clip-path="url(#914dd9350f)"><path fill="#ffffff" d="M 133.320312 206.816406 C 135.386719 203.734375 137.339844 200.824219 141.308594 199.761719 C 141.378906 199.746094 141.429688 199.691406 141.449219 199.621094 C 141.46875 199.554688 141.453125 199.484375 141.398438 199.429688 C 137.707031 195.742188 130.871094 196.183594 125.832031 200.429688 C 120.675781 204.777344 119.15625 211.726562 122.449219 215.921875 C 122.449219 215.925781 122.453125 215.925781 122.453125 215.929688 C 122.503906 215.992188 122.589844 216.015625 122.667969 215.988281 C 128.46875 214.050781 130.9375 210.371094 133.320312 206.816406 Z M 133.320312 206.816406 " fill-opacity="1" fill-rule="nonzero"/></g></g></g><g clip-path="url(#0f18249ce9)"><g clip-path="url(#890c28a85d)"><g clip-path="url(#4b7d1ff570)"><path fill="#ffffff" d="M 142.371094 200.546875 C 142.324219 200.492188 142.246094 200.460938 142.171875 200.476562 C 138.074219 201.40625 136.191406 204.210938 134.011719 207.460938 C 131.746094 210.839844 129.179688 214.664062 123.464844 216.683594 C 123.398438 216.707031 123.351562 216.761719 123.335938 216.828125 C 123.320312 216.886719 123.335938 216.953125 123.378906 217 C 123.378906 217.003906 123.382812 217.007812 123.386719 217.011719 C 127.066406 220.761719 133.929688 220.34375 139.007812 216.066406 C 144.183594 211.703125 145.691406 204.742188 142.371094 200.546875 Z M 135.042969 216.597656 C 134.875 216.679688 134.675781 216.632812 134.5625 216.496094 C 134.542969 216.472656 134.523438 216.445312 134.507812 216.414062 C 134.410156 216.214844 134.492188 215.976562 134.691406 215.878906 C 134.957031 215.75 135.230469 215.601562 135.5 215.445312 C 135.691406 215.332031 135.9375 215.398438 136.046875 215.585938 C 136.160156 215.777344 136.097656 216.019531 135.90625 216.132812 C 135.617188 216.300781 135.328125 216.457031 135.042969 216.597656 Z M 137.324219 214.683594 C 137.179688 214.515625 137.203125 214.265625 137.371094 214.121094 C 139.308594 212.488281 140.707031 210.390625 141.308594 208.214844 C 141.609375 207.132812 141.699219 206.082031 141.582031 205.089844 C 141.554688 204.871094 141.710938 204.671875 141.929688 204.648438 C 142.148438 204.621094 142.347656 204.777344 142.375 204.996094 C 142.503906 206.09375 142.40625 207.246094 142.078125 208.425781 C 141.433594 210.757812 139.945312 212.996094 137.886719 214.734375 C 137.71875 214.875 137.464844 214.851562 137.324219 214.683594 Z M 137.324219 214.683594 " fill-opacity="1" fill-rule="nonzero"/></g></g></g><g clip-path="url(#1203c61a9f)"><path fill="#8b792d" d="M 303.257812 292.835938 C 287.503906 294.84375 269.140625 295.996094 249.535156 295.996094 C 190.964844 295.996094 143.488281 285.71875 143.488281 273.039062 C 143.488281 267.117188 153.839844 261.722656 170.839844 257.648438 C 141.65625 261.738281 122.34375 268.847656 122.34375 276.9375 C 122.34375 289.617188 169.824219 299.894531 228.390625 299.894531 C 257.648438 299.894531 284.132812 297.328125 303.320312 293.179688 C 303.539062 293.132812 303.480469 292.804688 303.257812 292.835938 " fill-opacity="1" fill-rule="nonzero"/></g><g clip-path="url(#78937053dc)"><path fill="#8b792d" d="M 227.835938 133.617188 C 226.21875 131.367188 225.425781 126.378906 225.320312 124.144531 C 224.707031 110.992188 232.964844 99.480469 241.3125 90.171875 C 249.292969 81.265625 261.847656 67.550781 255.34375 54.636719 C 252.558594 49.097656 246.601562 45.960938 240.941406 44.109375 C 237.8125 43.089844 230.914062 41.980469 230.914062 41.980469 C 230.945312 41.992188 247 48.636719 227.835938 79.019531 C 204.699219 115.707031 227.828125 133.613281 227.835938 133.617188 " fill-opacity="1" fill-rule="nonzero"/></g><path fill="#603838" d="M 246.746094 102.863281 C 220.199219 128.460938 235.660156 147.933594 235.667969 147.941406 C 234.789062 145.757812 235.144531 141.476562 235.511719 139.609375 C 237.671875 128.625 246.828125 120.796875 255.609375 114.804688 C 264.007812 109.070312 277.15625 100.292969 274.40625 88.3125 C 273.230469 83.175781 268.949219 79.378906 264.652344 76.703125 C 262.277344 75.21875 256.804688 72.90625 256.804688 72.90625 C 256.828125 72.921875 268.734375 81.667969 246.746094 102.863281 " fill-opacity="1" fill-rule="nonzero"/><path fill="#8b792d" d="M 335.382812 198.90625 C 330.984375 198.90625 326.875 197.675781 323.367188 195.542969 C 325.714844 186.347656 326.96875 176.675781 326.96875 166.6875 C 326.96875 162.546875 326.742188 158.464844 326.324219 154.441406 C 329.105469 153.257812 332.167969 152.601562 335.382812 152.601562 C 348.171875 152.601562 358.535156 162.964844 358.535156 175.75 C 358.535156 188.539062 348.171875 198.90625 335.382812 198.90625 Z M 335.382812 142.335938 C 330.871094 142.335938 326.574219 143.234375 322.648438 144.851562 C 316.460938 138.34375 302.261719 132.621094 283.417969 129.042969 C 283.324219 129.019531 283.292969 129.164062 283.386719 129.191406 C 300.503906 133.851562 311.15625 140.410156 311.15625 147.667969 C 311.15625 161.820312 270.683594 173.292969 220.753906 173.292969 C 184.621094 173.292969 153.445312 167.285156 138.972656 158.601562 C 138.894531 158.554688 138.816406 158.652344 138.878906 158.71875 C 150.003906 170.125 186.878906 178.503906 230.660156 178.503906 C 259.847656 178.503906 285.960938 174.777344 303.425781 168.917969 C 299.53125 225.378906 258.578125 269.300781 204.710938 269.300781 C 197.390625 269.300781 190.253906 268.476562 183.371094 266.914062 C 195.984375 272.855469 209.925781 276.160156 224.59375 276.160156 C 268.324219 276.160156 305.644531 246.835938 320.3125 205.578125 C 324.84375 207.871094 329.957031 209.171875 335.382812 209.171875 C 353.839844 209.171875 368.800781 194.207031 368.800781 175.75 C 368.800781 157.296875 353.839844 142.335938 335.382812 142.335938 " fill-opacity="1" fill-rule="nonzero"/><g fill="#4b2c34" fill-opacity="1"><g transform="translate(121.512169, 217.634429)"><g><path d="M 10.71875 -11.046875 L 22.8125 -11.046875 C 23.445312 -11.046875 23.898438 -10.9375 24.171875 -10.71875 C 24.441406 -10.507812 24.578125 -10.148438 24.578125 -9.640625 C 24.578125 -9.179688 24.425781 -8.84375 24.125 -8.625 C 23.820312 -8.414062 23.332031 -8.3125 22.65625 -8.3125 L 21.34375 -8.3125 L 21.34375 -5.96875 C 22.34375 -6.59375 23.5 -6.90625 24.8125 -6.90625 C 25.769531 -6.90625 26.570312 -6.566406 27.21875 -5.890625 C 27.863281 -5.222656 28.1875 -4.144531 28.1875 -2.65625 C 28.1875 -2.175781 28.140625 -1.632812 28.046875 -1.03125 C 27.765625 0.800781 26.988281 2.363281 25.71875 3.65625 C 24.457031 4.945312 22.890625 5.898438 21.015625 6.515625 C 19.148438 7.128906 17.066406 7.4375 14.765625 7.4375 C 12.984375 7.4375 11.316406 7.210938 9.765625 6.765625 C 8.210938 6.328125 6.875 5.726562 5.75 4.96875 C 4.625 4.21875 3.660156 3.335938 2.859375 2.328125 C 2.054688 1.316406 1.453125 0.226562 1.046875 -0.9375 C 0.640625 -2.101562 0.4375 -3.300781 0.4375 -4.53125 C 0.4375 -6.113281 0.796875 -7.632812 1.515625 -9.09375 C 1.753906 -9.5625 2.066406 -9.929688 2.453125 -10.203125 C 2.835938 -10.472656 3.242188 -10.609375 3.671875 -10.609375 C 4.109375 -10.609375 4.515625 -10.523438 4.890625 -10.359375 C 5.722656 -9.847656 6.140625 -9.285156 6.140625 -8.671875 C 6.140625 -8.171875 6 -7.640625 5.71875 -7.078125 C 5.28125 -6.210938 5.0625 -5.3125 5.0625 -4.375 C 5.0625 -2.175781 5.96875 -0.296875 7.78125 1.265625 C 9.601562 2.828125 12.007812 3.609375 15 3.609375 C 16.425781 3.609375 17.75 3.40625 18.96875 3 C 20.1875 2.59375 21.203125 1.941406 22.015625 1.046875 C 22.835938 0.160156 23.25 -0.890625 23.25 -2.109375 C 23.25 -3.046875 22.960938 -3.515625 22.390625 -3.515625 C 22.085938 -3.515625 21.835938 -3.410156 21.640625 -3.203125 C 21.441406 -3.003906 21.34375 -2.707031 21.34375 -2.3125 C 21.320312 -1.445312 21.117188 -0.84375 20.734375 -0.5 C 20.359375 -0.164062 19.6875 0 18.71875 0 C 17.851562 0 17.265625 -0.195312 16.953125 -0.59375 C 16.648438 -1 16.5 -1.664062 16.5 -2.59375 L 16.5 -8.265625 L 13.21875 -8.265625 L 13.21875 -2.359375 C 13.21875 -1.472656 13.03125 -0.859375 12.65625 -0.515625 C 12.28125 -0.171875 11.632812 0 10.71875 0 C 9.851562 0 9.265625 -0.195312 8.953125 -0.59375 C 8.640625 -1 8.484375 -1.664062 8.484375 -2.59375 L 8.484375 -8.5625 C 8.484375 -9.3125 8.6875 -9.90625 9.09375 -10.34375 C 9.5 -10.789062 10.039062 -11.023438 10.71875 -11.046875 Z M 10.71875 -11.046875 "/></g></g></g><g fill="#4b2c34" fill-opacity="1"><g transform="translate(150.129069, 217.634429)"><g><path d="M 11 -3.21875 C 11 -3.375 10.984375 -3.519531 10.953125 -3.65625 C 10.921875 -3.800781 10.875 -3.929688 10.8125 -4.046875 C 10.757812 -4.160156 10.6875 -4.25 10.59375 -4.3125 C 10.5 -4.382812 10.394531 -4.421875 10.28125 -4.421875 C 10.039062 -4.421875 9.851562 -4.300781 9.71875 -4.0625 C 9.59375 -3.820312 9.53125 -3.535156 9.53125 -3.203125 C 9.53125 -2.867188 9.59375 -2.585938 9.71875 -2.359375 C 9.851562 -2.140625 10.035156 -2.03125 10.265625 -2.03125 C 10.503906 -2.03125 10.6875 -2.140625 10.8125 -2.359375 C 10.9375 -2.585938 11 -2.875 11 -3.21875 Z M 23.390625 -4.46875 C 22.285156 -4.46875 21.332031 -4.78125 20.53125 -5.40625 C 19.738281 -6.039062 19.34375 -6.867188 19.34375 -7.890625 C 19.34375 -8.921875 19.726562 -9.726562 20.5 -10.3125 C 21.28125 -10.90625 22.242188 -11.203125 23.390625 -11.203125 C 24.515625 -11.203125 25.460938 -10.890625 26.234375 -10.265625 C 27.003906 -9.640625 27.390625 -8.8125 27.390625 -7.78125 C 27.390625 -7.625 27.382812 -7.472656 27.375 -7.328125 C 27.46875 -7.429688 27.570312 -7.539062 27.6875 -7.65625 C 27.800781 -7.769531 27.90625 -7.878906 28 -7.984375 C 28.09375 -8.097656 28.195312 -8.234375 28.3125 -8.390625 C 28.425781 -8.546875 28.523438 -8.675781 28.609375 -8.78125 C 28.703125 -8.894531 28.816406 -9.039062 28.953125 -9.21875 C 29.097656 -9.40625 29.210938 -9.5625 29.296875 -9.6875 C 29.691406 -10.195312 30.046875 -10.550781 30.359375 -10.75 C 30.671875 -10.945312 31.125 -11.046875 31.71875 -11.046875 C 32.613281 -11.046875 33.25 -10.875 33.625 -10.53125 C 34.007812 -10.195312 34.203125 -9.59375 34.203125 -8.71875 L 34.203125 -2.421875 C 34.203125 -1.929688 34.140625 -1.523438 34.015625 -1.203125 C 33.898438 -0.878906 33.71875 -0.632812 33.46875 -0.46875 C 33.226562 -0.300781 32.96875 -0.179688 32.6875 -0.109375 C 32.414062 -0.0351562 32.085938 0 31.703125 0 L 27.21875 0 L 27.21875 2.59375 C 27.21875 3.164062 27.09375 3.597656 26.84375 3.890625 C 26.601562 4.179688 26.207031 4.328125 25.65625 4.328125 C 25.113281 4.328125 24.726562 4.210938 24.5 3.984375 C 24.269531 3.765625 24.15625 3.347656 24.15625 2.734375 L 24.15625 0 L 18.0625 0 C 17.332031 0 16.769531 -0.25 16.375 -0.75 C 15.988281 -1.257812 15.796875 -1.957031 15.796875 -2.84375 C 15.796875 -3.070312 15.785156 -3.289062 15.765625 -3.5 C 15.753906 -3.71875 15.710938 -4.03125 15.640625 -4.4375 C 15.566406 -4.851562 15.457031 -5.222656 15.3125 -5.546875 C 15.175781 -5.867188 14.96875 -6.21875 14.6875 -6.59375 C 14.414062 -6.976562 14.085938 -7.296875 13.703125 -7.546875 C 13.328125 -7.804688 12.835938 -8.023438 12.234375 -8.203125 C 11.628906 -8.378906 10.953125 -8.46875 10.203125 -8.46875 C 9.679688 -8.46875 9.179688 -8.410156 8.703125 -8.296875 C 8.222656 -8.179688 7.773438 -7.992188 7.359375 -7.734375 C 6.941406 -7.472656 6.609375 -7.113281 6.359375 -6.65625 C 6.109375 -6.195312 5.984375 -5.65625 5.984375 -5.03125 C 5.984375 -4.445312 6.070312 -3.941406 6.25 -3.515625 C 6.289062 -4.160156 6.5 -4.71875 6.875 -5.1875 C 7.25 -5.65625 7.726562 -6.003906 8.3125 -6.234375 C 8.90625 -6.472656 9.5625 -6.59375 10.28125 -6.59375 C 11.007812 -6.59375 11.671875 -6.460938 12.265625 -6.203125 C 12.867188 -5.941406 13.351562 -5.546875 13.71875 -5.015625 C 14.09375 -4.484375 14.28125 -3.875 14.28125 -3.1875 C 14.28125 -2.164062 13.890625 -1.359375 13.109375 -0.765625 C 12.335938 -0.171875 11.394531 0.125 10.28125 0.125 C 10.25 0.125 10.222656 0.125 10.203125 0.125 C 7.359375 0.125 5.128906 -0.390625 3.515625 -1.421875 C 1.898438 -2.460938 1.09375 -3.78125 1.09375 -5.375 C 1.09375 -7.21875 1.894531 -8.695312 3.5 -9.8125 C 5.113281 -10.925781 7.25 -11.484375 9.90625 -11.484375 C 11.207031 -11.484375 12.390625 -11.320312 13.453125 -11 C 14.515625 -10.6875 15.410156 -10.265625 16.140625 -9.734375 C 16.878906 -9.203125 17.5 -8.5625 18 -7.8125 C 18.5 -7.0625 18.859375 -6.269531 19.078125 -5.4375 C 19.304688 -4.601562 19.421875 -3.710938 19.421875 -2.765625 C 20.804688 -2.765625 22.382812 -2.765625 24.15625 -2.765625 L 24.15625 -4.53125 C 23.90625 -4.488281 23.648438 -4.46875 23.390625 -4.46875 Z M 24.109375 -7.8125 C 24.109375 -8.144531 24.046875 -8.425781 23.921875 -8.65625 C 23.796875 -8.894531 23.617188 -9.015625 23.390625 -9.015625 C 23.148438 -9.015625 22.960938 -8.894531 22.828125 -8.65625 C 22.703125 -8.414062 22.640625 -8.128906 22.640625 -7.796875 C 22.640625 -7.460938 22.703125 -7.179688 22.828125 -6.953125 C 22.960938 -6.734375 23.148438 -6.625 23.390625 -6.625 C 23.503906 -6.625 23.609375 -6.65625 23.703125 -6.71875 C 23.796875 -6.78125 23.875 -6.867188 23.9375 -6.984375 C 24 -7.097656 24.039062 -7.222656 24.0625 -7.359375 C 24.09375 -7.492188 24.109375 -7.644531 24.109375 -7.8125 Z M 27.21875 -4.921875 L 27.21875 -2.765625 L 29.484375 -2.75 L 29.484375 -6.265625 C 28.890625 -5.679688 28.132812 -5.234375 27.21875 -4.921875 Z M 27.21875 -4.921875 "/></g></g></g><g fill="#4b2c34" fill-opacity="1"><g transform="translate(170.454747, 217.634429)"><g><path d="M -2.203125 -15.859375 C -2.203125 -16.347656 -1.992188 -16.75 -1.578125 -17.0625 C -1.160156 -17.375 -0.566406 -17.53125 0.203125 -17.53125 C 1.796875 -17.53125 2.59375 -16.972656 2.59375 -15.859375 C 2.59375 -15.242188 2.390625 -14.8125 1.984375 -14.5625 C 1.585938 -14.3125 0.992188 -14.1875 0.203125 -14.1875 C -0.492188 -14.1875 -1.066406 -14.316406 -1.515625 -14.578125 C -1.972656 -14.847656 -2.203125 -15.273438 -2.203125 -15.859375 Z M -2.203125 -15.859375 "/></g></g></g><g fill="#4b2c34" fill-opacity="1"><g transform="translate(186.048672, 217.634429)"><g><path d="M 8.578125 -3.171875 C 8.578125 -3.328125 8.5625 -3.476562 8.53125 -3.625 C 8.5 -3.769531 8.453125 -3.898438 8.390625 -4.015625 C 8.335938 -4.128906 8.265625 -4.21875 8.171875 -4.28125 C 8.085938 -4.34375 7.988281 -4.375 7.875 -4.375 C 7.644531 -4.375 7.457031 -4.253906 7.3125 -4.015625 C 7.175781 -3.785156 7.109375 -3.503906 7.109375 -3.171875 C 7.109375 -2.847656 7.171875 -2.570312 7.296875 -2.34375 C 7.429688 -2.113281 7.617188 -2 7.859375 -2 C 8.109375 -2 8.289062 -2.109375 8.40625 -2.328125 C 8.519531 -2.546875 8.578125 -2.828125 8.578125 -3.171875 Z M 7.875 0.15625 C 6.789062 0.15625 5.804688 0.00390625 4.921875 -0.296875 C 4.035156 -0.597656 3.316406 -1 2.765625 -1.5 C 2.222656 -2.007812 1.804688 -2.578125 1.515625 -3.203125 C 1.234375 -3.828125 1.09375 -4.472656 1.09375 -5.140625 C 1.09375 -5.921875 1.207031 -6.628906 1.4375 -7.265625 C 1.675781 -7.910156 2.015625 -8.457031 2.453125 -8.90625 C 2.890625 -9.363281 3.390625 -9.757812 3.953125 -10.09375 C 4.523438 -10.4375 5.171875 -10.707031 5.890625 -10.90625 C 6.609375 -11.101562 7.359375 -11.25 8.140625 -11.34375 C 8.921875 -11.4375 9.742188 -11.484375 10.609375 -11.484375 C 13.035156 -11.484375 15.175781 -11.070312 17.03125 -10.25 C 18.476562 -10.9375 20.097656 -11.28125 21.890625 -11.28125 C 23.515625 -11.28125 25.128906 -10.90625 26.734375 -10.15625 C 28.140625 -10.75 29.707031 -11.046875 31.4375 -11.046875 L 39.21875 -11.046875 C 39.84375 -11.046875 40.265625 -10.941406 40.484375 -10.734375 C 40.710938 -10.523438 40.828125 -10.148438 40.828125 -9.609375 C 40.828125 -9.265625 40.753906 -8.988281 40.609375 -8.78125 C 40.460938 -8.582031 40.269531 -8.453125 40.03125 -8.390625 C 39.789062 -8.328125 39.476562 -8.296875 39.09375 -8.296875 L 37.09375 -8.296875 L 37.09375 -2.359375 C 37.09375 -1.472656 36.90625 -0.859375 36.53125 -0.515625 C 36.164062 -0.171875 35.523438 0 34.609375 0 C 33.742188 0 33.148438 -0.195312 32.828125 -0.59375 C 32.515625 -1 32.359375 -1.664062 32.359375 -2.59375 L 32.359375 -8.296875 L 31.234375 -8.296875 C 30.679688 -8.296875 30.101562 -8.207031 29.5 -8.03125 C 29.957031 -7.394531 30.3125 -6.722656 30.5625 -6.015625 C 30.820312 -5.304688 30.953125 -4.578125 30.953125 -3.828125 C 30.953125 -3.097656 30.769531 -2.425781 30.40625 -1.8125 C 30.039062 -1.207031 29.539062 -0.726562 28.90625 -0.375 C 28.28125 -0.0195312 27.582031 0.15625 26.8125 0.15625 C 26.582031 0.15625 26.351562 0.140625 26.125 0.109375 C 25.894531 0.078125 25.671875 0.0351562 25.453125 -0.015625 C 25.242188 -0.078125 25.039062 -0.148438 24.84375 -0.234375 C 24.644531 -0.328125 24.457031 -0.429688 24.28125 -0.546875 C 24.113281 -0.660156 23.953125 -0.785156 23.796875 -0.921875 C 23.648438 -1.066406 23.507812 -1.21875 23.375 -1.375 C 23.25 -1.539062 23.140625 -1.710938 23.046875 -1.890625 C 22.953125 -2.078125 22.867188 -2.273438 22.796875 -2.484375 C 22.734375 -2.691406 22.679688 -2.90625 22.640625 -3.125 C 22.609375 -3.34375 22.59375 -3.578125 22.59375 -3.828125 C 22.59375 -5.441406 23.019531 -6.835938 23.875 -8.015625 C 23.1875 -8.210938 22.507812 -8.3125 21.84375 -8.3125 C 21.15625 -8.3125 20.523438 -8.257812 19.953125 -8.15625 C 20.890625 -6.945312 21.359375 -5.503906 21.359375 -3.828125 C 21.359375 -2.578125 20.96875 -1.597656 20.1875 -0.890625 C 19.414062 -0.191406 18.425781 0.15625 17.21875 0.15625 C 16.007812 0.15625 15.003906 -0.207031 14.203125 -0.9375 C 13.398438 -1.675781 13 -2.640625 13 -3.828125 C 13 -5.398438 13.40625 -6.796875 14.21875 -8.015625 C 13.03125 -8.304688 11.957031 -8.453125 11 -8.453125 C 8.832031 -8.453125 7.335938 -7.769531 6.515625 -6.40625 C 6.941406 -6.519531 7.390625 -6.578125 7.859375 -6.578125 C 8.585938 -6.578125 9.253906 -6.441406 9.859375 -6.171875 C 10.472656 -5.898438 10.957031 -5.5 11.3125 -4.96875 C 11.675781 -4.445312 11.859375 -3.835938 11.859375 -3.140625 C 11.859375 -2.128906 11.472656 -1.328125 10.703125 -0.734375 C 9.929688 -0.140625 8.988281 0.15625 7.875 0.15625 Z M 26.78125 -5.8125 C 26.113281 -5.0625 25.78125 -4.1875 25.78125 -3.1875 C 25.78125 -2.976562 25.804688 -2.78125 25.859375 -2.59375 C 25.910156 -2.40625 25.976562 -2.234375 26.0625 -2.078125 C 26.15625 -1.921875 26.265625 -1.796875 26.390625 -1.703125 C 26.523438 -1.617188 26.664062 -1.578125 26.8125 -1.578125 C 27.132812 -1.578125 27.398438 -1.742188 27.609375 -2.078125 C 27.816406 -2.421875 27.921875 -2.789062 27.921875 -3.1875 C 27.921875 -4.125 27.539062 -5 26.78125 -5.8125 Z M 17.09375 -6.15625 C 16.488281 -5.40625 16.1875 -4.414062 16.1875 -3.1875 C 16.1875 -2.757812 16.285156 -2.382812 16.484375 -2.0625 C 16.679688 -1.738281 16.925781 -1.578125 17.21875 -1.578125 C 17.539062 -1.578125 17.804688 -1.738281 18.015625 -2.0625 C 18.222656 -2.382812 18.328125 -2.757812 18.328125 -3.1875 C 18.328125 -4.414062 17.914062 -5.40625 17.09375 -6.15625 Z M 17.09375 -6.15625 "/></g></g></g><g fill="#4b2c34" fill-opacity="1"><g transform="translate(227.313318, 217.634429)"><g><path d="M 12.78125 -2.359375 C 12.78125 -1.472656 12.59375 -0.859375 12.21875 -0.515625 C 11.84375 -0.171875 11.195312 0 10.28125 0 C 9.40625 0 8.8125 -0.195312 8.5 -0.59375 C 8.195312 -1 8.046875 -1.664062 8.046875 -2.59375 L 8.046875 -8.265625 L 5.40625 -8.265625 L 5.40625 -2.359375 C 5.40625 -1.472656 5.222656 -0.859375 4.859375 -0.515625 C 4.492188 -0.171875 3.847656 0 2.921875 0 C 2.046875 0 1.453125 -0.195312 1.140625 -0.59375 C 0.835938 -1 0.6875 -1.664062 0.6875 -2.59375 L 0.703125 -8.453125 C 0.734375 -9.242188 0.945312 -9.867188 1.34375 -10.328125 C 1.75 -10.785156 2.289062 -11.015625 2.96875 -11.015625 L 13.640625 -11.046875 C 14.253906 -11.046875 14.675781 -10.941406 14.90625 -10.734375 C 15.144531 -10.523438 15.265625 -10.160156 15.265625 -9.640625 C 15.265625 -9.109375 15.117188 -8.75 14.828125 -8.5625 C 14.546875 -8.382812 14.113281 -8.296875 13.53125 -8.296875 L 12.765625 -8.296875 Z M 12.78125 -2.359375 "/></g></g></g><g fill="#4b2c34" fill-opacity="1"><g transform="translate(198.8738, 239.380971)"><g><path d="M 5.339844 0.183594 C 7.765625 0.183594 9.652344 -1.292969 10.113281 -3.535156 L 7.949219 -3.535156 C 7.566406 -2.480469 6.59375 -1.804688 5.378906 -1.804688 C 3.808594 -1.804688 2.703125 -2.953125 2.703125 -4.613281 C 2.703125 -6.277344 3.824219 -7.421875 5.394531 -7.421875 C 6.566406 -7.421875 7.527344 -6.789062 7.882812 -5.773438 L 10.046875 -5.773438 C 9.519531 -7.988281 7.671875 -9.414062 5.328125 -9.414062 C 2.53125 -9.414062 0.566406 -7.4375 0.566406 -4.613281 C 0.566406 -1.792969 2.53125 0.183594 5.339844 0.183594 Z M 5.339844 0.183594 "/></g></g></g><g fill="#4b2c34" fill-opacity="1"><g transform="translate(210.739778, 239.380971)"><g><path d="M 0.117188 0 L 2.359375 0 L 2.980469 -1.59375 L 6.644531 -1.59375 L 7.265625 0 L 9.507812 0 L 5.839844 -9.230469 L 3.785156 -9.230469 Z M 3.519531 -3.242188 L 4.8125 -6.617188 L 6.117188 -3.242188 Z M 3.519531 -3.242188 "/></g></g></g><g fill="#4b2c34" fill-opacity="1"><g transform="translate(221.59062, 239.380971)"><g><path d="M 1.109375 0 L 3.203125 0 L 3.203125 -3.175781 L 6.554688 -3.175781 L 6.554688 -5.023438 L 3.203125 -5.023438 L 3.203125 -7.332031 L 6.894531 -7.332031 L 6.894531 -9.230469 L 1.109375 -9.230469 Z M 1.109375 0 "/></g></g></g><g fill="#4b2c34" fill-opacity="1"><g transform="translate(230.292537, 239.380971)"><g><path d="M 1.109375 0 L 7.316406 0 L 7.316406 -1.78125 L 3.191406 -1.78125 L 3.191406 -3.796875 L 6.816406 -3.796875 L 6.816406 -5.550781 L 3.191406 -5.550781 L 3.191406 -7.460938 L 7.171875 -7.460938 L 7.171875 -9.230469 L 1.109375 -9.230469 Z M 1.109375 0 "/></g></g></g></svg>